<mxfile host="app.diagrams.net" modified="2023-08-13T07:59:13.658Z" agent="Mozilla/5.0 (Windows NT 10.0; Win64; x64) AppleWebKit/537.36 (KHTML, like Gecko) Chrome/115.0.0.0 Safari/537.36 Edg/115.0.1901.203" etag="t-F64wrvcizgUqQoWtrV" version="21.6.8" type="github">
  <diagram name="Page-1" id="26jy-_EbFpemDyZncVNP">
    <mxGraphModel dx="5695" dy="2660" grid="1" gridSize="12" guides="1" tooltips="1" connect="1" arrows="1" fold="1" page="1" pageScale="1" pageWidth="850" pageHeight="1100" math="0" shadow="0">
      <root>
        <mxCell id="0" />
        <mxCell id="1" parent="0" />
        <mxCell id="j80nH5_JYjky4zkuFjFW-16" value="" style="swimlane;startSize=0;" vertex="1" parent="1">
          <mxGeometry x="195" y="660" width="330" height="150" as="geometry" />
        </mxCell>
        <mxCell id="j80nH5_JYjky4zkuFjFW-17" value="Handled by Auth0" style="text;html=1;strokeColor=none;fillColor=none;align=center;verticalAlign=middle;whiteSpace=wrap;rounded=0;" vertex="1" parent="j80nH5_JYjky4zkuFjFW-16">
          <mxGeometry x="70" y="4" width="170" height="30" as="geometry" />
        </mxCell>
        <mxCell id="l8xyqsgmn4kDfwOyuNhK-19" value="" style="rounded=1;whiteSpace=wrap;html=1;absoluteArcSize=1;arcSize=14;strokeWidth=2;fillColor=#d5e8d4;strokeColor=#82b366;" parent="1" vertex="1">
          <mxGeometry x="-735" y="1488" width="1080" height="552" as="geometry" />
        </mxCell>
        <mxCell id="amVTXd0eAMOSNDRmJKCI-18" value="" style="rounded=1;whiteSpace=wrap;html=1;absoluteArcSize=1;arcSize=14;strokeWidth=2;" parent="1" vertex="1">
          <mxGeometry x="-325" y="1840" width="230" height="170" as="geometry" />
        </mxCell>
        <mxCell id="amVTXd0eAMOSNDRmJKCI-4" value="" style="html=1;strokeWidth=2;shape=manualInput;whiteSpace=wrap;rounded=1;size=26;arcSize=11;fillColor=#f8cecc;strokeColor=#b85450;" parent="1" vertex="1">
          <mxGeometry x="256" y="994" width="260" height="128" as="geometry" />
        </mxCell>
        <mxCell id="l8xyqsgmn4kDfwOyuNhK-28" value="" style="verticalLabelPosition=middle;verticalAlign=middle;html=1;shape=trapezoid;perimeter=trapezoidPerimeter;whiteSpace=wrap;size=0.23;arcSize=10;flipV=1;labelPosition=center;align=center;fillColor=#f8cecc;strokeColor=#b85450;" parent="1" vertex="1">
          <mxGeometry x="355" y="850" width="180" height="110" as="geometry" />
        </mxCell>
        <mxCell id="l8xyqsgmn4kDfwOyuNhK-1" value="Landing Page" style="rounded=1;whiteSpace=wrap;html=1;absoluteArcSize=1;arcSize=14;strokeWidth=2;fillColor=#d5e8d4;strokeColor=#82b366;" parent="1" vertex="1">
          <mxGeometry x="65" y="690" width="100" height="100" as="geometry" />
        </mxCell>
        <mxCell id="l8xyqsgmn4kDfwOyuNhK-2" value="Auth Page" style="rounded=1;whiteSpace=wrap;html=1;absoluteArcSize=1;arcSize=14;strokeWidth=2;fillColor=#d5e8d4;strokeColor=#82b366;" parent="1" vertex="1">
          <mxGeometry x="395" y="690" width="100" height="100" as="geometry" />
        </mxCell>
        <mxCell id="l8xyqsgmn4kDfwOyuNhK-3" value="Dashboard" style="rounded=1;whiteSpace=wrap;html=1;absoluteArcSize=1;arcSize=14;strokeWidth=2;fillColor=#d5e8d4;strokeColor=#82b366;" parent="1" vertex="1">
          <mxGeometry x="395" y="1012" width="100" height="100" as="geometry" />
        </mxCell>
        <mxCell id="l8xyqsgmn4kDfwOyuNhK-4" value="Login / Sign-up" style="strokeWidth=2;html=1;shape=mxgraph.flowchart.decision;whiteSpace=wrap;fillColor=#e1d5e7;strokeColor=#9673a6;" parent="1" vertex="1">
          <mxGeometry x="226" y="690" width="100" height="100" as="geometry" />
        </mxCell>
        <mxCell id="l8xyqsgmn4kDfwOyuNhK-8" value="" style="endArrow=classic;html=1;rounded=0;exitX=1;exitY=0.5;exitDx=0;exitDy=0;exitPerimeter=0;entryX=0;entryY=0.5;entryDx=0;entryDy=0;" parent="1" source="l8xyqsgmn4kDfwOyuNhK-4" target="l8xyqsgmn4kDfwOyuNhK-2" edge="1">
          <mxGeometry width="50" height="50" relative="1" as="geometry">
            <mxPoint x="435" y="770" as="sourcePoint" />
            <mxPoint x="485" y="720" as="targetPoint" />
          </mxGeometry>
        </mxCell>
        <mxCell id="l8xyqsgmn4kDfwOyuNhK-9" value="" style="endArrow=classic;html=1;rounded=0;entryX=0;entryY=0.5;entryDx=0;entryDy=0;entryPerimeter=0;" parent="1" source="l8xyqsgmn4kDfwOyuNhK-1" target="l8xyqsgmn4kDfwOyuNhK-4" edge="1">
          <mxGeometry width="50" height="50" relative="1" as="geometry">
            <mxPoint x="435" y="770" as="sourcePoint" />
            <mxPoint x="485" y="720" as="targetPoint" />
          </mxGeometry>
        </mxCell>
        <mxCell id="l8xyqsgmn4kDfwOyuNhK-11" value="Organization Verification" style="rhombus;whiteSpace=wrap;html=1;fillColor=#e1d5e7;strokeColor=#9673a6;shadow=0;strokeWidth=2;" parent="1" vertex="1">
          <mxGeometry x="395" y="860" width="100" height="90" as="geometry" />
        </mxCell>
        <mxCell id="l8xyqsgmn4kDfwOyuNhK-12" value="" style="endArrow=classic;html=1;rounded=0;entryX=0.5;entryY=0;entryDx=0;entryDy=0;exitX=0.5;exitY=1;exitDx=0;exitDy=0;" parent="1" source="l8xyqsgmn4kDfwOyuNhK-2" target="l8xyqsgmn4kDfwOyuNhK-11" edge="1">
          <mxGeometry width="50" height="50" relative="1" as="geometry">
            <mxPoint x="385" y="810" as="sourcePoint" />
            <mxPoint x="435" y="760" as="targetPoint" />
          </mxGeometry>
        </mxCell>
        <mxCell id="l8xyqsgmn4kDfwOyuNhK-13" value="" style="endArrow=classic;html=1;rounded=0;entryX=0.5;entryY=0;entryDx=0;entryDy=0;exitX=0.5;exitY=1;exitDx=0;exitDy=0;" parent="1" source="l8xyqsgmn4kDfwOyuNhK-11" target="l8xyqsgmn4kDfwOyuNhK-3" edge="1">
          <mxGeometry width="50" height="50" relative="1" as="geometry">
            <mxPoint x="455" y="890" as="sourcePoint" />
            <mxPoint x="505" y="840" as="targetPoint" />
          </mxGeometry>
        </mxCell>
        <mxCell id="l8xyqsgmn4kDfwOyuNhK-14" value="Organization User" style="shape=umlActor;verticalLabelPosition=bottom;verticalAlign=top;html=1;outlineConnect=0;fillColor=#6600CC;strokeColor=#6600CC;fontColor=#6600CC;labelBackgroundColor=default;" parent="1" vertex="1">
          <mxGeometry x="100" y="530" width="30" height="60" as="geometry" />
        </mxCell>
        <mxCell id="l8xyqsgmn4kDfwOyuNhK-15" value="" style="endArrow=classic;html=1;rounded=0;entryX=0.5;entryY=0;entryDx=0;entryDy=0;strokeColor=#6600CC;" parent="1" target="l8xyqsgmn4kDfwOyuNhK-1" edge="1">
          <mxGeometry width="50" height="50" relative="1" as="geometry">
            <mxPoint x="115" y="610" as="sourcePoint" />
            <mxPoint x="355" y="520" as="targetPoint" />
          </mxGeometry>
        </mxCell>
        <mxCell id="l8xyqsgmn4kDfwOyuNhK-18" value="" style="strokeWidth=2;html=1;shape=mxgraph.flowchart.annotation_2;align=left;labelPosition=right;pointerEvents=1;direction=south;" parent="1" vertex="1">
          <mxGeometry x="190" y="1280" width="510" height="208" as="geometry" />
        </mxCell>
        <mxCell id="l8xyqsgmn4kDfwOyuNhK-20" value="" style="rounded=1;whiteSpace=wrap;html=1;absoluteArcSize=1;arcSize=14;strokeWidth=2;fillColor=#d5e8d4;strokeColor=#82b366;" parent="1" vertex="1">
          <mxGeometry x="505" y="1488" width="1080" height="552" as="geometry" />
        </mxCell>
        <mxCell id="l8xyqsgmn4kDfwOyuNhK-21" value="&lt;h1&gt;&lt;font style=&quot;font-size: 28px;&quot;&gt;Managing the old events&lt;/font&gt;&lt;/h1&gt;&lt;p&gt;&lt;font style=&quot;font-size: 17px;&quot;&gt;Here the user can list and view all the existing events and then can enter an event to perform a crud operation on the data.&lt;/font&gt;&lt;/p&gt;" style="text;html=1;strokeColor=none;fillColor=none;spacing=5;spacingTop=-20;whiteSpace=wrap;overflow=hidden;rounded=0;" parent="1" vertex="1">
          <mxGeometry x="535" y="1508" width="360" height="122" as="geometry" />
        </mxCell>
        <mxCell id="l8xyqsgmn4kDfwOyuNhK-22" value="&lt;h1&gt;&lt;font style=&quot;font-size: 28px;&quot;&gt;Create a new event&lt;/font&gt;&lt;/h1&gt;&lt;p&gt;&lt;font style=&quot;font-size: 17px;&quot;&gt;Here the user can create a new event for their ORGANIZATION to distribute the certificates.&lt;/font&gt;&lt;/p&gt;" style="text;html=1;strokeColor=none;fillColor=none;spacing=5;spacingTop=-20;whiteSpace=wrap;overflow=hidden;rounded=0;" parent="1" vertex="1">
          <mxGeometry x="-705" y="1508" width="360" height="102" as="geometry" />
        </mxCell>
        <mxCell id="l8xyqsgmn4kDfwOyuNhK-24" value="&lt;font style=&quot;font-size: 12px;&quot;&gt;Create or&lt;br&gt;Manage&lt;/font&gt;" style="strokeWidth=2;html=1;shape=mxgraph.flowchart.decision;whiteSpace=wrap;fillColor=#e1d5e7;strokeColor=#9673a6;" parent="1" vertex="1">
          <mxGeometry x="395" y="1190" width="100" height="100" as="geometry" />
        </mxCell>
        <mxCell id="l8xyqsgmn4kDfwOyuNhK-27" value="" style="endArrow=classic;html=1;rounded=0;entryX=0.5;entryY=0;entryDx=0;entryDy=0;entryPerimeter=0;" parent="1" target="l8xyqsgmn4kDfwOyuNhK-24" edge="1">
          <mxGeometry width="50" height="50" relative="1" as="geometry">
            <mxPoint x="445" y="1110" as="sourcePoint" />
            <mxPoint x="455" y="1022" as="targetPoint" />
          </mxGeometry>
        </mxCell>
        <mxCell id="amVTXd0eAMOSNDRmJKCI-2" value="Only for new users" style="text;html=1;strokeColor=none;fillColor=none;align=center;verticalAlign=middle;whiteSpace=wrap;rounded=0;" parent="1" vertex="1">
          <mxGeometry x="356" y="855" width="89" height="30" as="geometry" />
        </mxCell>
        <mxCell id="amVTXd0eAMOSNDRmJKCI-5" value="Google drive access" style="text;html=1;strokeColor=none;fillColor=none;align=center;verticalAlign=middle;whiteSpace=wrap;rounded=0;" parent="1" vertex="1">
          <mxGeometry x="276" y="1043" width="80" height="30" as="geometry" />
        </mxCell>
        <mxCell id="amVTXd0eAMOSNDRmJKCI-8" value="Organization User" style="shape=umlActor;verticalLabelPosition=bottom;verticalAlign=top;html=1;outlineConnect=0;fillColor=#6600CC;strokeColor=#6600CC;fontColor=#6600CC;labelBackgroundColor=default;" parent="1" vertex="1">
          <mxGeometry x="135" y="1028" width="30" height="60" as="geometry" />
        </mxCell>
        <mxCell id="amVTXd0eAMOSNDRmJKCI-9" value="" style="endArrow=classic;html=1;rounded=0;strokeColor=#6600CC;" parent="1" source="amVTXd0eAMOSNDRmJKCI-8" target="amVTXd0eAMOSNDRmJKCI-5" edge="1">
          <mxGeometry width="50" height="50" relative="1" as="geometry">
            <mxPoint x="275" y="1150" as="sourcePoint" />
            <mxPoint x="325" y="1100" as="targetPoint" />
          </mxGeometry>
        </mxCell>
        <mxCell id="amVTXd0eAMOSNDRmJKCI-10" value="Admin" style="shape=umlActor;verticalLabelPosition=bottom;verticalAlign=top;html=1;outlineConnect=0;fillColor=#FF0080;strokeColor=#FF0080;fontColor=#FF0080;labelBackgroundColor=default;" parent="1" vertex="1">
          <mxGeometry x="145" y="850" width="30" height="60" as="geometry" />
        </mxCell>
        <mxCell id="amVTXd0eAMOSNDRmJKCI-14" value="" style="endArrow=classic;html=1;rounded=0;entryX=0;entryY=0.25;entryDx=0;entryDy=0;strokeColor=#FF0080;" parent="1" source="amVTXd0eAMOSNDRmJKCI-10" target="amVTXd0eAMOSNDRmJKCI-2" edge="1">
          <mxGeometry width="50" height="50" relative="1" as="geometry">
            <mxPoint x="405" y="790" as="sourcePoint" />
            <mxPoint x="385" y="870" as="targetPoint" />
          </mxGeometry>
        </mxCell>
        <mxCell id="amVTXd0eAMOSNDRmJKCI-16" value="Create a new event" style="rounded=1;whiteSpace=wrap;html=1;absoluteArcSize=1;arcSize=14;strokeWidth=2;" parent="1" vertex="1">
          <mxGeometry x="-635" y="1690" width="120" height="100" as="geometry" />
        </mxCell>
        <mxCell id="amVTXd0eAMOSNDRmJKCI-17" value="SP DATSBASE" style="strokeWidth=2;html=1;shape=mxgraph.flowchart.database;whiteSpace=wrap;" parent="1" vertex="1">
          <mxGeometry x="-315" y="1849" width="120" height="110" as="geometry" />
        </mxCell>
        <mxCell id="amVTXd0eAMOSNDRmJKCI-19" value="Supabase Utils Module 2" style="text;html=1;strokeColor=none;fillColor=none;align=center;verticalAlign=middle;whiteSpace=wrap;rounded=0;" parent="1" vertex="1">
          <mxGeometry x="-265" y="1969" width="150" height="30" as="geometry" />
        </mxCell>
        <mxCell id="amVTXd0eAMOSNDRmJKCI-20" value="Upload all certificates in BULK" style="rounded=1;whiteSpace=wrap;html=1;absoluteArcSize=1;arcSize=14;strokeWidth=2;" parent="1" vertex="1">
          <mxGeometry x="-425" y="1690" width="100" height="100" as="geometry" />
        </mxCell>
        <mxCell id="amVTXd0eAMOSNDRmJKCI-22" value="One generated CSV file with the certificates verification link with&amp;nbsp;&lt;br&gt;unique certificate ID." style="strokeWidth=2;html=1;shape=mxgraph.flowchart.display;whiteSpace=wrap;" parent="1" vertex="1">
          <mxGeometry x="-65" y="1640" width="230" height="120" as="geometry" />
        </mxCell>
        <mxCell id="amVTXd0eAMOSNDRmJKCI-24" value="" style="verticalLabelPosition=bottom;verticalAlign=top;html=1;shape=hexagon;perimeter=hexagonPerimeter2;arcSize=6;size=0.27;" parent="1" vertex="1">
          <mxGeometry x="-255" y="1710" width="100" height="60" as="geometry" />
        </mxCell>
        <mxCell id="amVTXd0eAMOSNDRmJKCI-25" value="Processing" style="text;html=1;strokeColor=none;fillColor=none;align=center;verticalAlign=middle;whiteSpace=wrap;rounded=0;" parent="1" vertex="1">
          <mxGeometry x="-235" y="1725" width="60" height="30" as="geometry" />
        </mxCell>
        <mxCell id="amVTXd0eAMOSNDRmJKCI-26" value="" style="endArrow=classic;html=1;rounded=0;entryX=0;entryY=0.5;entryDx=0;entryDy=0;" parent="1" source="amVTXd0eAMOSNDRmJKCI-16" target="amVTXd0eAMOSNDRmJKCI-20" edge="1">
          <mxGeometry width="50" height="50" relative="1" as="geometry">
            <mxPoint x="-275" y="1760" as="sourcePoint" />
            <mxPoint x="-225" y="1710" as="targetPoint" />
          </mxGeometry>
        </mxCell>
        <mxCell id="amVTXd0eAMOSNDRmJKCI-27" value="" style="endArrow=classic;html=1;rounded=0;entryX=0;entryY=0.5;entryDx=0;entryDy=0;exitX=0.999;exitY=0.658;exitDx=0;exitDy=0;exitPerimeter=0;" parent="1" source="amVTXd0eAMOSNDRmJKCI-20" target="amVTXd0eAMOSNDRmJKCI-24" edge="1">
          <mxGeometry width="50" height="50" relative="1" as="geometry">
            <mxPoint x="-505" y="1750" as="sourcePoint" />
            <mxPoint x="-345" y="1750" as="targetPoint" />
          </mxGeometry>
        </mxCell>
        <mxCell id="amVTXd0eAMOSNDRmJKCI-28" value="" style="rounded=1;whiteSpace=wrap;html=1;absoluteArcSize=1;arcSize=14;strokeWidth=2;" parent="1" vertex="1">
          <mxGeometry x="1365" y="1170" width="220" height="170" as="geometry" />
        </mxCell>
        <mxCell id="amVTXd0eAMOSNDRmJKCI-29" value="SP DATSBASE" style="strokeWidth=2;html=1;shape=mxgraph.flowchart.database;whiteSpace=wrap;" parent="1" vertex="1">
          <mxGeometry x="1375" y="1179" width="120" height="110" as="geometry" />
        </mxCell>
        <mxCell id="amVTXd0eAMOSNDRmJKCI-30" value="Supabase Utils Module 3" style="text;html=1;strokeColor=none;fillColor=none;align=center;verticalAlign=middle;whiteSpace=wrap;rounded=0;" parent="1" vertex="1">
          <mxGeometry x="1425" y="1299" width="150" height="30" as="geometry" />
        </mxCell>
        <mxCell id="amVTXd0eAMOSNDRmJKCI-31" value="" style="rounded=1;whiteSpace=wrap;html=1;absoluteArcSize=1;arcSize=14;strokeWidth=2;" parent="1" vertex="1">
          <mxGeometry x="685" y="655" width="220" height="170" as="geometry" />
        </mxCell>
        <mxCell id="amVTXd0eAMOSNDRmJKCI-32" value="SP DATSBASE" style="strokeWidth=2;html=1;shape=mxgraph.flowchart.database;whiteSpace=wrap;" parent="1" vertex="1">
          <mxGeometry x="695" y="664" width="120" height="110" as="geometry" />
        </mxCell>
        <mxCell id="amVTXd0eAMOSNDRmJKCI-33" value="Supabase Utils Module 1" style="text;html=1;strokeColor=none;fillColor=none;align=center;verticalAlign=middle;whiteSpace=wrap;rounded=0;" parent="1" vertex="1">
          <mxGeometry x="745" y="784" width="150" height="30" as="geometry" />
        </mxCell>
        <mxCell id="j80nH5_JYjky4zkuFjFW-3" value="" style="endArrow=classic;html=1;rounded=0;entryX=0;entryY=0.5;entryDx=0;entryDy=0;entryPerimeter=0;exitX=1;exitY=0.5;exitDx=0;exitDy=0;" edge="1" parent="1" source="amVTXd0eAMOSNDRmJKCI-24" target="amVTXd0eAMOSNDRmJKCI-22">
          <mxGeometry width="50" height="50" relative="1" as="geometry">
            <mxPoint x="-185" y="1830" as="sourcePoint" />
            <mxPoint x="-135" y="1780" as="targetPoint" />
          </mxGeometry>
        </mxCell>
        <mxCell id="j80nH5_JYjky4zkuFjFW-4" value="" style="endArrow=classic;startArrow=classic;html=1;rounded=0;exitX=1;exitY=0.75;exitDx=0;exitDy=0;entryX=0;entryY=0.647;entryDx=0;entryDy=0;entryPerimeter=0;" edge="1" parent="1" source="amVTXd0eAMOSNDRmJKCI-16" target="amVTXd0eAMOSNDRmJKCI-18">
          <mxGeometry width="50" height="50" relative="1" as="geometry">
            <mxPoint x="-465" y="1830" as="sourcePoint" />
            <mxPoint x="-415" y="1780" as="targetPoint" />
          </mxGeometry>
        </mxCell>
        <mxCell id="j80nH5_JYjky4zkuFjFW-5" value="" style="rounded=1;whiteSpace=wrap;html=1;absoluteArcSize=1;arcSize=14;strokeWidth=2;" vertex="1" parent="1">
          <mxGeometry x="-285" y="1550" width="170" height="128" as="geometry" />
        </mxCell>
        <mxCell id="j80nH5_JYjky4zkuFjFW-6" value="&lt;div style=&quot;&quot;&gt;&lt;span style=&quot;background-color: initial;&quot;&gt;&lt;font style=&quot;font-size: 12px;&quot;&gt;G-Drive DATSBASE&lt;/font&gt;&lt;/span&gt;&lt;/div&gt;" style="strokeWidth=2;html=1;shape=mxgraph.flowchart.database;whiteSpace=wrap;align=center;" vertex="1" parent="1">
          <mxGeometry x="-275" y="1563" width="80" height="97" as="geometry" />
        </mxCell>
        <mxCell id="j80nH5_JYjky4zkuFjFW-7" value="Google Drive Utils Module" style="text;html=1;strokeColor=none;fillColor=none;align=center;verticalAlign=middle;whiteSpace=wrap;rounded=0;" vertex="1" parent="1">
          <mxGeometry x="-195" y="1600" width="80" height="30" as="geometry" />
        </mxCell>
        <mxCell id="j80nH5_JYjky4zkuFjFW-8" value="" style="endArrow=classic;startArrow=classic;html=1;rounded=0;entryX=0;entryY=0.5;entryDx=0;entryDy=0;" edge="1" parent="1" source="amVTXd0eAMOSNDRmJKCI-20" target="j80nH5_JYjky4zkuFjFW-5">
          <mxGeometry width="50" height="50" relative="1" as="geometry">
            <mxPoint x="-465" y="1830" as="sourcePoint" />
            <mxPoint x="-415" y="1780" as="targetPoint" />
          </mxGeometry>
        </mxCell>
        <mxCell id="j80nH5_JYjky4zkuFjFW-9" value="" style="endArrow=classic;startArrow=classic;html=1;rounded=0;" edge="1" parent="1">
          <mxGeometry width="50" height="50" relative="1" as="geometry">
            <mxPoint x="-216" y="1710" as="sourcePoint" />
            <mxPoint x="-205" y="1680" as="targetPoint" />
          </mxGeometry>
        </mxCell>
        <mxCell id="j80nH5_JYjky4zkuFjFW-10" value="" style="rounded=1;whiteSpace=wrap;html=1;absoluteArcSize=1;arcSize=14;strokeWidth=2;" vertex="1" parent="1">
          <mxGeometry x="725" y="994" width="170" height="128" as="geometry" />
        </mxCell>
        <mxCell id="j80nH5_JYjky4zkuFjFW-11" value="&lt;div style=&quot;&quot;&gt;&lt;span style=&quot;background-color: initial;&quot;&gt;&lt;font style=&quot;font-size: 12px;&quot;&gt;G-Drive DATSBASE&lt;/font&gt;&lt;/span&gt;&lt;/div&gt;" style="strokeWidth=2;html=1;shape=mxgraph.flowchart.database;whiteSpace=wrap;align=center;" vertex="1" parent="1">
          <mxGeometry x="735" y="1007" width="80" height="97" as="geometry" />
        </mxCell>
        <mxCell id="j80nH5_JYjky4zkuFjFW-12" value="Google Drive Utils Module" style="text;html=1;strokeColor=none;fillColor=none;align=center;verticalAlign=middle;whiteSpace=wrap;rounded=0;" vertex="1" parent="1">
          <mxGeometry x="815" y="1043" width="80" height="30" as="geometry" />
        </mxCell>
        <mxCell id="j80nH5_JYjky4zkuFjFW-13" value="" style="endArrow=classic;startArrow=classic;html=1;rounded=0;entryX=0;entryY=0.5;entryDx=0;entryDy=0;exitX=0.996;exitY=0.594;exitDx=0;exitDy=0;exitPerimeter=0;" edge="1" parent="1" source="amVTXd0eAMOSNDRmJKCI-4" target="j80nH5_JYjky4zkuFjFW-10">
          <mxGeometry width="50" height="50" relative="1" as="geometry">
            <mxPoint x="185" y="1260" as="sourcePoint" />
            <mxPoint x="235" y="1210" as="targetPoint" />
          </mxGeometry>
        </mxCell>
        <mxCell id="j80nH5_JYjky4zkuFjFW-14" value="" style="endArrow=classic;startArrow=classic;html=1;rounded=0;entryX=0.009;entryY=0.683;entryDx=0;entryDy=0;entryPerimeter=0;" edge="1" parent="1" target="amVTXd0eAMOSNDRmJKCI-31">
          <mxGeometry width="50" height="50" relative="1" as="geometry">
            <mxPoint x="515" y="850" as="sourcePoint" />
            <mxPoint x="395" y="890" as="targetPoint" />
          </mxGeometry>
        </mxCell>
        <mxCell id="j80nH5_JYjky4zkuFjFW-18" value="List of all the events" style="rounded=1;whiteSpace=wrap;html=1;absoluteArcSize=1;arcSize=14;strokeWidth=2;" vertex="1" parent="1">
          <mxGeometry x="565" y="1714" width="100" height="100" as="geometry" />
        </mxCell>
        <mxCell id="j80nH5_JYjky4zkuFjFW-19" value="Choose&lt;br&gt;&amp;nbsp;an event" style="strokeWidth=2;html=1;shape=mxgraph.flowchart.decision;whiteSpace=wrap;" vertex="1" parent="1">
          <mxGeometry x="745" y="1710" width="100" height="100" as="geometry" />
        </mxCell>
        <mxCell id="j80nH5_JYjky4zkuFjFW-20" value="CRUD on&lt;br&gt;&amp;nbsp;an EVENT" style="rounded=1;whiteSpace=wrap;html=1;absoluteArcSize=1;arcSize=14;strokeWidth=2;" vertex="1" parent="1">
          <mxGeometry x="935" y="1700" width="100" height="100" as="geometry" />
        </mxCell>
        <mxCell id="j80nH5_JYjky4zkuFjFW-21" value="Processing patch" style="verticalLabelPosition=bottom;verticalAlign=top;html=1;shape=hexagon;perimeter=hexagonPerimeter2;arcSize=6;size=0.27;" vertex="1" parent="1">
          <mxGeometry x="1105" y="1700" width="100" height="60" as="geometry" />
        </mxCell>
        <mxCell id="j80nH5_JYjky4zkuFjFW-22" value="Display new&amp;nbsp;&lt;br&gt;CSV" style="strokeWidth=2;html=1;shape=mxgraph.flowchart.display;whiteSpace=wrap;" vertex="1" parent="1">
          <mxGeometry x="1255" y="1660" width="170" height="90" as="geometry" />
        </mxCell>
        <mxCell id="j80nH5_JYjky4zkuFjFW-23" value="" style="endArrow=classic;html=1;rounded=0;entryX=0;entryY=0.5;entryDx=0;entryDy=0;entryPerimeter=0;" edge="1" parent="1" source="j80nH5_JYjky4zkuFjFW-18" target="j80nH5_JYjky4zkuFjFW-19">
          <mxGeometry width="50" height="50" relative="1" as="geometry">
            <mxPoint x="985" y="1740" as="sourcePoint" />
            <mxPoint x="1035" y="1690" as="targetPoint" />
          </mxGeometry>
        </mxCell>
        <mxCell id="j80nH5_JYjky4zkuFjFW-24" value="" style="endArrow=classic;html=1;rounded=0;exitX=1;exitY=0.5;exitDx=0;exitDy=0;exitPerimeter=0;entryX=0;entryY=0.5;entryDx=0;entryDy=0;" edge="1" parent="1" source="j80nH5_JYjky4zkuFjFW-19" target="j80nH5_JYjky4zkuFjFW-20">
          <mxGeometry width="50" height="50" relative="1" as="geometry">
            <mxPoint x="675" y="1756" as="sourcePoint" />
            <mxPoint x="765" y="1750" as="targetPoint" />
          </mxGeometry>
        </mxCell>
        <mxCell id="j80nH5_JYjky4zkuFjFW-26" value="" style="endArrow=classic;html=1;rounded=0;exitX=1;exitY=0.5;exitDx=0;exitDy=0;entryX=0;entryY=0.5;entryDx=0;entryDy=0;" edge="1" parent="1" source="j80nH5_JYjky4zkuFjFW-20" target="j80nH5_JYjky4zkuFjFW-21">
          <mxGeometry width="50" height="50" relative="1" as="geometry">
            <mxPoint x="865" y="1750" as="sourcePoint" />
            <mxPoint x="945" y="1740" as="targetPoint" />
          </mxGeometry>
        </mxCell>
        <mxCell id="j80nH5_JYjky4zkuFjFW-27" value="" style="endArrow=classic;html=1;rounded=0;exitX=1;exitY=0.5;exitDx=0;exitDy=0;entryX=0;entryY=0.5;entryDx=0;entryDy=0;entryPerimeter=0;" edge="1" parent="1" source="j80nH5_JYjky4zkuFjFW-21" target="j80nH5_JYjky4zkuFjFW-22">
          <mxGeometry width="50" height="50" relative="1" as="geometry">
            <mxPoint x="1045" y="1740" as="sourcePoint" />
            <mxPoint x="1095" y="1700" as="targetPoint" />
          </mxGeometry>
        </mxCell>
        <mxCell id="j80nH5_JYjky4zkuFjFW-30" value="" style="rounded=1;whiteSpace=wrap;html=1;absoluteArcSize=1;arcSize=14;strokeWidth=2;" vertex="1" parent="1">
          <mxGeometry x="785" y="1849" width="230" height="170" as="geometry" />
        </mxCell>
        <mxCell id="j80nH5_JYjky4zkuFjFW-31" value="SP DATSBASE" style="strokeWidth=2;html=1;shape=mxgraph.flowchart.database;whiteSpace=wrap;" vertex="1" parent="1">
          <mxGeometry x="795" y="1858" width="120" height="110" as="geometry" />
        </mxCell>
        <mxCell id="j80nH5_JYjky4zkuFjFW-32" value="Supabase Utils Module 2" style="text;html=1;strokeColor=none;fillColor=none;align=center;verticalAlign=middle;whiteSpace=wrap;rounded=0;" vertex="1" parent="1">
          <mxGeometry x="845" y="1978" width="150" height="30" as="geometry" />
        </mxCell>
        <mxCell id="j80nH5_JYjky4zkuFjFW-33" value="" style="endArrow=classic;startArrow=classic;html=1;rounded=0;entryX=0;entryY=0.25;entryDx=0;entryDy=0;exitX=0.75;exitY=1;exitDx=0;exitDy=0;" edge="1" parent="1" source="j80nH5_JYjky4zkuFjFW-18" target="j80nH5_JYjky4zkuFjFW-30">
          <mxGeometry width="50" height="50" relative="1" as="geometry">
            <mxPoint x="475" y="2030" as="sourcePoint" />
            <mxPoint x="525" y="1980" as="targetPoint" />
          </mxGeometry>
        </mxCell>
        <mxCell id="j80nH5_JYjky4zkuFjFW-34" value="" style="endArrow=classic;startArrow=classic;html=1;rounded=0;entryX=0.5;entryY=1;entryDx=0;entryDy=0;" edge="1" parent="1" source="j80nH5_JYjky4zkuFjFW-30" target="j80nH5_JYjky4zkuFjFW-20">
          <mxGeometry width="50" height="50" relative="1" as="geometry">
            <mxPoint x="675" y="2030" as="sourcePoint" />
            <mxPoint x="725" y="1980" as="targetPoint" />
          </mxGeometry>
        </mxCell>
        <mxCell id="j80nH5_JYjky4zkuFjFW-35" value="" style="endArrow=classic;startArrow=classic;html=1;rounded=0;entryX=0.5;entryY=1;entryDx=0;entryDy=0;exitX=0.5;exitY=0;exitDx=0;exitDy=0;" edge="1" parent="1" source="amVTXd0eAMOSNDRmJKCI-18" target="amVTXd0eAMOSNDRmJKCI-24">
          <mxGeometry width="50" height="50" relative="1" as="geometry">
            <mxPoint x="-95" y="2030" as="sourcePoint" />
            <mxPoint x="-45" y="1980" as="targetPoint" />
          </mxGeometry>
        </mxCell>
        <mxCell id="j80nH5_JYjky4zkuFjFW-40" value="" style="rounded=1;whiteSpace=wrap;html=1;absoluteArcSize=1;arcSize=14;strokeWidth=2;" vertex="1" parent="1">
          <mxGeometry x="-285" y="1550" width="170" height="128" as="geometry" />
        </mxCell>
        <mxCell id="j80nH5_JYjky4zkuFjFW-41" value="&lt;div style=&quot;&quot;&gt;&lt;span style=&quot;background-color: initial;&quot;&gt;&lt;font style=&quot;font-size: 12px;&quot;&gt;G-Drive DATSBASE&lt;/font&gt;&lt;/span&gt;&lt;/div&gt;" style="strokeWidth=2;html=1;shape=mxgraph.flowchart.database;whiteSpace=wrap;align=center;" vertex="1" parent="1">
          <mxGeometry x="-275" y="1563" width="80" height="97" as="geometry" />
        </mxCell>
        <mxCell id="j80nH5_JYjky4zkuFjFW-42" value="Google Drive Utils Module" style="text;html=1;strokeColor=none;fillColor=none;align=center;verticalAlign=middle;whiteSpace=wrap;rounded=0;" vertex="1" parent="1">
          <mxGeometry x="-195" y="1600" width="80" height="30" as="geometry" />
        </mxCell>
        <mxCell id="j80nH5_JYjky4zkuFjFW-43" value="" style="rounded=1;whiteSpace=wrap;html=1;absoluteArcSize=1;arcSize=14;strokeWidth=2;" vertex="1" parent="1">
          <mxGeometry x="1035" y="1508" width="170" height="128" as="geometry" />
        </mxCell>
        <mxCell id="j80nH5_JYjky4zkuFjFW-44" value="&lt;div style=&quot;&quot;&gt;&lt;span style=&quot;background-color: initial;&quot;&gt;&lt;font style=&quot;font-size: 12px;&quot;&gt;G-Drive DATSBASE&lt;/font&gt;&lt;/span&gt;&lt;/div&gt;" style="strokeWidth=2;html=1;shape=mxgraph.flowchart.database;whiteSpace=wrap;align=center;" vertex="1" parent="1">
          <mxGeometry x="1045" y="1521" width="80" height="97" as="geometry" />
        </mxCell>
        <mxCell id="j80nH5_JYjky4zkuFjFW-45" value="Google Drive Utils Module" style="text;html=1;strokeColor=none;fillColor=none;align=center;verticalAlign=middle;whiteSpace=wrap;rounded=0;" vertex="1" parent="1">
          <mxGeometry x="1125" y="1558" width="80" height="30" as="geometry" />
        </mxCell>
        <mxCell id="j80nH5_JYjky4zkuFjFW-46" value="" style="endArrow=classic;startArrow=classic;html=1;rounded=0;entryX=0.428;entryY=1.008;entryDx=0;entryDy=0;entryPerimeter=0;exitX=0.5;exitY=0;exitDx=0;exitDy=0;" edge="1" parent="1" source="j80nH5_JYjky4zkuFjFW-20" target="j80nH5_JYjky4zkuFjFW-43">
          <mxGeometry width="50" height="50" relative="1" as="geometry">
            <mxPoint x="925" y="1690" as="sourcePoint" />
            <mxPoint x="975" y="1640" as="targetPoint" />
          </mxGeometry>
        </mxCell>
        <mxCell id="j80nH5_JYjky4zkuFjFW-47" value="" style="endArrow=classic;startArrow=classic;html=1;rounded=0;entryX=0.75;entryY=1;entryDx=0;entryDy=0;exitX=0.5;exitY=0;exitDx=0;exitDy=0;" edge="1" parent="1" source="j80nH5_JYjky4zkuFjFW-21" target="j80nH5_JYjky4zkuFjFW-43">
          <mxGeometry width="50" height="50" relative="1" as="geometry">
            <mxPoint x="925" y="1690" as="sourcePoint" />
            <mxPoint x="975" y="1640" as="targetPoint" />
          </mxGeometry>
        </mxCell>
        <mxCell id="j80nH5_JYjky4zkuFjFW-48" value="" style="rounded=1;whiteSpace=wrap;html=1;absoluteArcSize=1;arcSize=14;strokeWidth=2;fillColor=#d5e8d4;strokeColor=#82b366;" vertex="1" parent="1">
          <mxGeometry x="-230" y="2440" width="1350" height="500" as="geometry" />
        </mxCell>
        <mxCell id="j80nH5_JYjky4zkuFjFW-49" value="" style="verticalLabelPosition=bottom;verticalAlign=top;html=1;shape=offPageConnector;rounded=0;size=0.5;fillColor=#e1d5e7;strokeColor=#9673a6;" vertex="1" parent="1">
          <mxGeometry x="365" y="2170" width="180" height="210" as="geometry" />
        </mxCell>
        <mxCell id="j80nH5_JYjky4zkuFjFW-51" value="" style="endArrow=classic;html=1;rounded=0;entryX=0.507;entryY=0.003;entryDx=0;entryDy=0;entryPerimeter=0;exitX=0.5;exitY=1;exitDx=0;exitDy=0;" edge="1" parent="1" source="j80nH5_JYjky4zkuFjFW-49" target="j80nH5_JYjky4zkuFjFW-48">
          <mxGeometry width="50" height="50" relative="1" as="geometry">
            <mxPoint x="225" y="2330" as="sourcePoint" />
            <mxPoint x="275" y="2280" as="targetPoint" />
          </mxGeometry>
        </mxCell>
        <mxCell id="j80nH5_JYjky4zkuFjFW-52" value="" style="endArrow=classic;html=1;rounded=0;exitX=0.962;exitY=0.998;exitDx=0;exitDy=0;exitPerimeter=0;entryX=0;entryY=0;entryDx=0;entryDy=0;" edge="1" parent="1" source="l8xyqsgmn4kDfwOyuNhK-19" target="j80nH5_JYjky4zkuFjFW-49">
          <mxGeometry width="50" height="50" relative="1" as="geometry">
            <mxPoint x="395" y="2150" as="sourcePoint" />
            <mxPoint x="445" y="2100" as="targetPoint" />
          </mxGeometry>
        </mxCell>
        <mxCell id="j80nH5_JYjky4zkuFjFW-53" value="" style="endArrow=classic;html=1;rounded=0;exitX=0.068;exitY=1.006;exitDx=0;exitDy=0;exitPerimeter=0;entryX=1;entryY=0;entryDx=0;entryDy=0;" edge="1" parent="1" source="l8xyqsgmn4kDfwOyuNhK-20" target="j80nH5_JYjky4zkuFjFW-49">
          <mxGeometry width="50" height="50" relative="1" as="geometry">
            <mxPoint x="314" y="2049" as="sourcePoint" />
            <mxPoint x="375" y="2180" as="targetPoint" />
          </mxGeometry>
        </mxCell>
        <mxCell id="j80nH5_JYjky4zkuFjFW-54" value="&lt;font style=&quot;font-size: 18px;&quot;&gt;CSV FILE&lt;/font&gt;" style="text;html=1;strokeColor=none;fillColor=none;align=center;verticalAlign=middle;whiteSpace=wrap;rounded=0;" vertex="1" parent="1">
          <mxGeometry x="410" y="2230" width="100" height="30" as="geometry" />
        </mxCell>
        <mxCell id="j80nH5_JYjky4zkuFjFW-55" value="&lt;font style=&quot;font-size: 18px;&quot;&gt;Open certificate link&lt;/font&gt;" style="rounded=1;whiteSpace=wrap;html=1;absoluteArcSize=1;arcSize=14;strokeWidth=2;" vertex="1" parent="1">
          <mxGeometry x="285" y="2630" width="150" height="130" as="geometry" />
        </mxCell>
        <mxCell id="j80nH5_JYjky4zkuFjFW-57" value="&lt;h1&gt;&lt;font style=&quot;font-size: 28px;&quot;&gt;User opens their certificate link&lt;/font&gt;&lt;/h1&gt;" style="text;html=1;strokeColor=none;fillColor=none;spacing=5;spacingTop=-20;whiteSpace=wrap;overflow=hidden;rounded=0;" vertex="1" parent="1">
          <mxGeometry x="-195" y="2480" width="430" height="40" as="geometry" />
        </mxCell>
        <mxCell id="j80nH5_JYjky4zkuFjFW-59" value="&lt;font style=&quot;font-size: 20px;&quot;&gt;Displays a certificate page like &lt;b&gt;coursera&lt;/b&gt;&lt;/font&gt;" style="strokeWidth=2;html=1;shape=mxgraph.flowchart.display;whiteSpace=wrap;" vertex="1" parent="1">
          <mxGeometry x="615" y="2610" width="230" height="150" as="geometry" />
        </mxCell>
        <mxCell id="j80nH5_JYjky4zkuFjFW-61" value="&lt;font style=&quot;font-size: 18px;&quot;&gt;Find own certificate link from the CSV&lt;/font&gt;" style="rounded=1;whiteSpace=wrap;html=1;absoluteArcSize=1;arcSize=14;strokeWidth=2;" vertex="1" parent="1">
          <mxGeometry x="-95" y="2610" width="180" height="160" as="geometry" />
        </mxCell>
        <mxCell id="j80nH5_JYjky4zkuFjFW-63" value="" style="endArrow=classic;html=1;rounded=0;entryX=0;entryY=0.5;entryDx=0;entryDy=0;" edge="1" parent="1" target="j80nH5_JYjky4zkuFjFW-55">
          <mxGeometry width="50" height="50" relative="1" as="geometry">
            <mxPoint x="85" y="2695" as="sourcePoint" />
            <mxPoint x="395" y="2760" as="targetPoint" />
          </mxGeometry>
        </mxCell>
        <mxCell id="j80nH5_JYjky4zkuFjFW-64" value="" style="endArrow=classic;html=1;rounded=0;entryX=0;entryY=0.5;entryDx=0;entryDy=0;entryPerimeter=0;exitX=0.992;exitY=0.599;exitDx=0;exitDy=0;exitPerimeter=0;" edge="1" parent="1" source="j80nH5_JYjky4zkuFjFW-55" target="j80nH5_JYjky4zkuFjFW-59">
          <mxGeometry width="50" height="50" relative="1" as="geometry">
            <mxPoint x="345" y="2810" as="sourcePoint" />
            <mxPoint x="395" y="2760" as="targetPoint" />
          </mxGeometry>
        </mxCell>
        <mxCell id="j80nH5_JYjky4zkuFjFW-65" value="&lt;font color=&quot;#ff0080&quot; style=&quot;font-size: 100px;&quot;&gt;UNICEVER SYSTEM DESIGN&lt;/font&gt;" style="text;html=1;strokeColor=none;fillColor=none;align=center;verticalAlign=middle;whiteSpace=wrap;rounded=0;" vertex="1" parent="1">
          <mxGeometry x="-430" y="290" width="1780" height="30" as="geometry" />
        </mxCell>
        <mxCell id="j80nH5_JYjky4zkuFjFW-66" value="" style="swimlane;startSize=0;strokeWidth=5;strokeColor=#FF0080;" vertex="1" parent="1">
          <mxGeometry x="-816" y="60" width="2486" height="3140" as="geometry" />
        </mxCell>
      </root>
    </mxGraphModel>
  </diagram>
</mxfile>
